<svg width="19" height="21" viewBox="0 0 19 21" fill="none" xmlns="http://www.w3.org/2000/svg">
  <path
    d="M7.99999 2.01782C7.58578 2.01782 7.24999 1.68204 7.24999 1.26782C7.24999 0.853609 7.58578 0.517822 7.99999 0.517822H11.5355C11.9497 0.517822 12.2855 0.853609 12.2855 1.26782C12.2855 1.68204 11.9497 2.01782 11.5355 2.01782H7.99999Z"
    fill="#F28E34" />
  <path
    d="M4.53033 2.46973C4.82322 2.76262 4.82322 3.23749 4.53033 3.53039L2.03033 6.03039C1.73744 6.32328 1.26256 6.32328 0.96967 6.03039C0.676777 5.73749 0.676777 5.26262 0.96967 4.96973L3.46967 2.46973C3.76256 2.17683 4.23744 2.17683 4.53033 2.46973Z"
    fill="#F28E34" />
  <path
    d="M10 4.75006C5.99594 4.75006 2.75 7.99599 2.75 12.0001C2.75 16.0041 5.99594 19.2501 10 19.2501C14.0041 19.2501 17.25 16.0041 17.25 12.0001C17.25 11.5858 17.5858 11.2501 18 11.2501C18.4142 11.2501 18.75 11.5858 18.75 12.0001C18.75 16.8325 14.8325 20.7501 10 20.7501C5.16751 20.7501 1.25 16.8325 1.25 12.0001C1.25 7.16756 5.16751 3.25006 10 3.25006C10.4142 3.25006 10.75 3.58584 10.75 4.00006C10.75 4.41427 10.4142 4.75006 10 4.75006Z"
    fill="#F28E34" />
  <path
    d="M15.1882 7.36432C15.4204 7.06575 15.394 6.64099 15.1265 6.37353C14.8591 6.10607 14.4343 6.07963 14.1357 6.31185L10.9658 8.77733L8.89441 10.2569C8.45194 10.573 8.18934 11.0832 8.18934 11.627C8.18934 12.5569 8.94316 13.3107 9.87305 13.3107C10.4168 13.3107 10.9271 13.0481 11.2431 12.6056L12.7227 10.5342L15.1882 7.36432Z"
    fill="#F28E34" />
</svg>