<svg viewBox="0 0 78 100" fill="none" xmlns="http://www.w3.org/2000/svg">
  <path
    d="M3.64514 97.2764C4.94509 82.4811 9.60615 68.0768 16.9944 55.2058C24.3827 42.3348 34.2063 31.1942 46.0524 22.5066C52.7817 17.5679 60.051 13.622 67.7486 10.4114C68.5347 10.0807 69.4098 9.18494 69.5926 8.34547C69.7375 7.64977 69.2725 7.12529 68.526 7.42404C53.9373 13.1205 40.8419 22.5267 30.1274 33.8835C19.4877 45.1674 11.1223 58.7168 5.97312 73.3529C3.07832 81.582 1.19135 90.1655 0.451103 98.8506C0.37664 99.7464 1.32728 99.6231 1.89097 99.3632C2.62777 99.0244 3.56569 98.141 3.65401 97.2718L3.64514 97.2764Z"
    fill="#F28E34" />
  <path
    d="M50.0886 11.123C54.2529 9.52807 58.4549 8.04882 62.7038 6.70297C64.7861 6.04641 66.8822 5.41645 68.9834 4.81771C70.074 4.50873 71.1693 4.20861 72.2603 3.92199C73.0352 3.72116 73.7111 3.48174 74.439 3.94814L75.0183 1.68418C68.7208 7.30002 63.2164 13.8106 58.8512 21.0356C58.4985 21.614 58.3786 22.4658 59.2428 22.5229C60.107 22.58 61.0747 21.6022 61.4975 20.9421C65.6408 14.3514 70.5859 8.3691 76.3806 3.17317C76.9093 2.69468 77.8594 1.46666 76.96 0.909199C75.4278 -0.04022 73.0574 1.03714 71.5215 1.46539C69.26 2.10259 66.9988 2.76215 64.7608 3.46605C60.1957 4.8977 55.6822 6.47162 51.2114 8.19242C50.3582 8.52427 49.4478 9.17911 49.1366 10.0968C48.9112 10.7893 49.2755 11.4452 50.0844 11.1365L50.0886 11.123Z"
    fill="#F28E34" />
</svg>