<svg width="100" height="206" viewBox="0 0 100 206" fill="none" xmlns="http://www.w3.org/2000/svg">
  <path
    d="M100 48.1725C100 45.6165 97.8373 43.4538 95.2814 43.4538C92.7254 43.4538 90.5627 45.6165 90.5627 48.1725C90.5627 50.7284 92.7254 52.8911 95.2814 52.8911C97.8373 52.8911 100 50.7284 100 48.1725Z"
    fill="#9D9D9D" />
  <path
    d="M100 26.349C100 23.7931 97.8373 21.6304 95.2814 21.6304C92.7254 21.6304 90.5627 23.7931 90.5627 26.349C90.5627 28.9049 92.7254 31.0676 95.2814 31.0676C97.8373 31.2642 100 29.1015 100 26.349Z"
    fill="#9D9D9D" />
  <path
    d="M100 4.7219C100 2.16597 97.8373 0.00327003 95.2814 0.00327003C92.7254 0.00327003 90.5627 2.16597 90.5627 4.7219C90.5627 7.27783 92.7254 9.44052 95.2814 9.44052C97.8373 9.44052 100 7.27783 100 4.7219Z"
    fill="#9D9D9D" />
  <path
    d="M77.3899 48.1725C77.3899 45.6165 75.2272 43.4538 72.6712 43.4538C70.1153 43.4538 67.9526 45.6165 67.9526 48.1725C67.9526 50.7284 70.1153 52.8911 72.6712 52.8911C75.2272 52.8911 77.3899 50.7284 77.3899 48.1725Z"
    fill="#9D9D9D" />
  <path
    d="M77.3899 26.349C77.3899 23.7931 75.2272 21.6304 72.6712 21.6304C70.1153 21.6304 67.9526 23.7931 67.9526 26.349C67.9526 28.9049 70.1153 31.0676 72.6712 31.0676C75.2272 31.0676 77.3899 29.1015 77.3899 26.349Z"
    fill="#9D9D9D" />
  <path
    d="M77.3899 4.7219C77.3899 2.16597 75.2272 0.00327003 72.6712 0.00327003C70.1153 0.00327003 67.9526 2.16597 67.9526 4.7219C67.9526 7.27783 70.1153 9.44052 72.6712 9.44052C75.2272 9.44052 77.3899 7.27783 77.3899 4.7219Z"
    fill="#9D9D9D" />
  <path
    d="M50.0611 52.8911C52.6671 52.8911 54.7798 50.7785 54.7798 48.1725C54.7798 45.5664 52.6671 43.4538 50.0611 43.4538C47.455 43.4538 45.3425 45.5664 45.3425 48.1725C45.3425 50.7785 47.455 52.8911 50.0611 52.8911Z"
    fill="#9D9D9D" />
  <path
    d="M50.0611 31.0676C52.6671 31.0676 54.7798 28.955 54.7798 26.349C54.7798 23.743 52.6671 21.6304 50.0611 21.6304C47.455 21.6304 45.3425 23.743 45.3425 26.349C45.3425 28.955 47.455 31.0676 50.0611 31.0676Z"
    fill="#9D9D9D" />
  <path
    d="M50.0611 9.44052C52.6671 9.44052 54.7798 7.32793 54.7798 4.7219C54.7798 2.11586 52.6671 0.00327003 50.0611 0.00327003C47.455 0.00327003 45.3425 2.11586 45.3425 4.7219C45.3425 7.32793 47.455 9.44052 50.0611 9.44052Z"
    fill="#9D9D9D" />
  <path
    d="M32.3661 48.1725C32.3661 45.6165 30.2034 43.4538 27.6475 43.4538C25.0916 43.4538 22.9289 45.6165 22.9289 48.1725C22.9289 50.7284 25.0916 52.8911 27.6475 52.8911C30.2034 52.8911 32.3661 50.7284 32.3661 48.1725Z"
    fill="#9D9D9D" />
  <path
    d="M32.3661 26.349C32.3661 23.7931 30.2034 21.6304 27.6475 21.6304C25.0916 21.6304 22.9289 23.7931 22.9289 26.349C22.9289 28.9049 25.0916 31.0676 27.6475 31.0676C30.2034 31.0676 32.3661 29.1015 32.3661 26.349Z"
    fill="#9D9D9D" />
  <path
    d="M32.3661 4.7219C32.3661 2.16597 30.2034 0.00327003 27.6475 0.00327003C25.0916 0.00327003 22.9289 2.16597 22.9289 4.7219C22.9289 7.27783 25.0916 9.44052 27.6475 9.44052C30.2034 9.44052 32.3661 7.27783 32.3661 4.7219Z"
    fill="#9D9D9D" />
  <path
    d="M9.75598 48.1725C9.75598 45.6165 7.59328 43.4538 5.03735 43.4538C2.48142 43.4538 0.318726 45.6165 0.318726 48.1725C0.318726 50.7284 2.48142 52.8911 5.03735 52.8911C7.59328 52.8911 9.75598 50.7284 9.75598 48.1725Z"
    fill="#9D9D9D" />
  <path
    d="M9.75598 26.349C9.75598 23.7931 7.59328 21.6304 5.03735 21.6304C2.48142 21.6304 0.318726 23.7931 0.318726 26.349C0.318726 28.9049 2.48142 31.0676 5.03735 31.0676C7.59328 31.2642 9.75598 29.1015 9.75598 26.349Z"
    fill="#9D9D9D" />
  <path
    d="M9.75598 4.7218C9.75598 2.16587 7.59328 0.00317383 5.03735 0.00317383C2.48143 0.00317383 0.318728 2.16587 0.318728 4.7218C0.318728 7.27773 2.48143 9.44043 5.03735 9.44043C7.59328 9.44043 9.75598 7.27773 9.75598 4.7218Z"
    fill="#9D9D9D" />
  <path
    d="M90.3661 200.349C90.3661 202.905 92.5288 205.067 95.0848 205.067C97.6407 205.067 99.8034 202.905 99.8034 200.349C99.8034 197.793 97.6407 195.63 95.0848 195.63C92.5288 195.63 90.3661 197.596 90.3661 200.349Z"
    fill="#9D9D9D" />
  <path
    d="M100 178.525C100 175.969 97.8373 173.806 95.2814 173.806C92.7254 173.806 90.5627 175.969 90.5627 178.525C90.5627 181.081 92.7254 183.244 95.2814 183.244C97.8373 183.244 100 181.277 100 178.525Z"
    fill="#9D9D9D" />
  <path
    d="M100 156.898C100 154.342 97.8373 152.179 95.2814 152.179C92.7254 152.179 90.5627 154.342 90.5627 156.898C90.5627 159.454 92.7254 161.616 95.2814 161.616C97.8373 161.616 100 159.454 100 156.898Z"
    fill="#9D9D9D" />
  <path
    d="M100 135.074C100 132.518 97.8373 130.356 95.2814 130.356C92.7254 130.356 90.5627 132.518 90.5627 135.074C90.5627 137.63 92.7254 139.793 95.2814 139.793C97.8373 139.793 100 137.827 100 135.074Z"
    fill="#9D9D9D" />
  <path
    d="M100 113.447C100 110.891 97.8373 108.729 95.2814 108.729C92.7254 108.729 90.5627 110.891 90.5627 113.447C90.5627 116.003 92.7254 118.166 95.2814 118.166C97.8373 118.166 100 116.003 100 113.447Z"
    fill="#9D9D9D" />
  <path
    d="M100 91.6234C100 89.0675 97.8373 86.9048 95.2814 86.9048C92.7254 86.9048 90.5627 89.0675 90.5627 91.6234C90.5627 94.1793 92.7254 96.3421 95.2814 96.3421C97.8373 96.3421 100 94.1793 100 91.6234Z"
    fill="#9D9D9D" />
  <path
    d="M100 69.7996C100 67.2436 97.8373 65.0809 95.2814 65.0809C92.7254 65.0809 90.5627 67.2436 90.5627 69.7996C90.5627 72.3555 92.7254 74.5182 95.2814 74.5182C97.8373 74.7148 100 72.5521 100 69.7996Z"
    fill="#9D9D9D" />
  <path
    d="M77.3899 200.349C77.3899 197.793 75.2272 195.63 72.6712 195.63C70.1153 195.63 67.9526 197.793 67.9526 200.349C67.9526 202.905 70.1153 205.067 72.6712 205.067C75.2272 205.067 77.3899 202.905 77.3899 200.349Z"
    fill="#9D9D9D" />
  <path
    d="M77.3899 178.525C77.3899 175.969 75.2272 173.806 72.6712 173.806C70.1153 173.806 67.9526 175.969 67.9526 178.525C67.9526 181.081 70.1153 183.244 72.6712 183.244C75.2272 183.244 77.3899 181.277 77.3899 178.525Z"
    fill="#9D9D9D" />
  <path
    d="M77.3899 156.898C77.3899 154.342 75.2272 152.179 72.6712 152.179C70.1153 152.179 67.9526 154.342 67.9526 156.898C67.9526 159.454 70.1153 161.616 72.6712 161.616C75.2272 161.616 77.3899 159.454 77.3899 156.898Z"
    fill="#9D9D9D" />
  <path
    d="M77.3899 135.074C77.3899 132.518 75.2272 130.356 72.6712 130.356C70.1153 130.356 67.9526 132.518 67.9526 135.074C67.9526 137.63 70.1153 139.793 72.6712 139.793C75.2272 139.793 77.3899 137.827 77.3899 135.074Z"
    fill="#9D9D9D" />
  <path
    d="M77.3899 113.447C77.3899 110.891 75.2272 108.729 72.6712 108.729C70.1153 108.729 67.9526 110.891 67.9526 113.447C67.9526 116.003 70.1153 118.166 72.6712 118.166C75.2272 118.166 77.3899 116.003 77.3899 113.447Z"
    fill="#9D9D9D" />
  <path
    d="M77.3899 91.6234C77.3899 89.0675 75.2272 86.9048 72.6712 86.9048C70.1153 86.9048 67.9526 89.0675 67.9526 91.6234C67.9526 94.1793 70.1153 96.3421 72.6712 96.3421C75.2272 96.3421 77.3899 94.1793 77.3899 91.6234Z"
    fill="#9D9D9D" />
  <path
    d="M77.3899 69.7996C77.3899 67.2436 75.2272 65.0809 72.6712 65.0809C70.1153 65.0809 67.9526 67.2436 67.9526 69.7996C67.9526 72.3555 70.1153 74.5182 72.6712 74.5182C75.2272 74.5182 77.3899 72.5521 77.3899 69.7996Z"
    fill="#9D9D9D" />
  <path
    d="M54.7798 200.349C54.7798 197.793 52.617 195.63 50.0611 195.63C47.5052 195.63 45.3425 197.793 45.3425 200.349C45.3425 202.905 47.5052 205.067 50.0611 205.067C52.617 205.067 54.7798 202.905 54.7798 200.349Z"
    fill="#9D9D9D" />
  <path
    d="M54.7798 178.525C54.7798 175.969 52.617 173.806 50.0611 173.806C47.5052 173.806 45.3425 175.969 45.3425 178.525C45.3425 181.081 47.5052 183.244 50.0611 183.244C52.617 183.244 54.7798 181.277 54.7798 178.525Z"
    fill="#9D9D9D" />
  <path
    d="M54.7798 156.898C54.7798 154.342 52.617 152.179 50.0611 152.179C47.5052 152.179 45.3425 154.342 45.3425 156.898C45.3425 159.454 47.5052 161.616 50.0611 161.616C52.617 161.616 54.7798 159.454 54.7798 156.898Z"
    fill="#9D9D9D" />
  <path
    d="M54.7798 135.074C54.7798 132.518 52.617 130.356 50.0611 130.356C47.5052 130.356 45.3425 132.518 45.3425 135.074C45.3425 137.63 47.5052 139.793 50.0611 139.793C52.617 139.793 54.7798 137.827 54.7798 135.074Z"
    fill="#9D9D9D" />
  <path
    d="M50.0611 118.166C52.6671 118.166 54.7798 116.053 54.7798 113.447C54.7798 110.841 52.6671 108.729 50.0611 108.729C47.455 108.729 45.3425 110.841 45.3425 113.447C45.3425 116.053 47.455 118.166 50.0611 118.166Z"
    fill="#9D9D9D" />
  <path
    d="M54.7798 91.6234C54.7798 89.0675 52.617 86.9048 50.0611 86.9048C47.5052 86.9048 45.3425 89.0675 45.3425 91.6234C45.3425 94.1793 47.5052 96.3421 50.0611 96.3421C52.617 96.3421 54.7798 94.1793 54.7798 91.6234Z"
    fill="#9D9D9D" />
  <path
    d="M54.7798 69.7996C54.7798 67.2436 52.617 65.0809 50.0611 65.0809C47.5052 65.0809 45.3425 67.2436 45.3425 69.7996C45.3425 72.3555 47.5052 74.5182 50.0611 74.5182C52.617 74.7148 54.7798 72.5521 54.7798 69.7996Z"
    fill="#9D9D9D" />
  <path
    d="M32.3661 200.349C32.3661 197.793 30.2034 195.63 27.6475 195.63C25.0916 195.63 22.9289 197.793 22.9289 200.349C22.9289 202.905 25.0916 205.067 27.6475 205.067C30.2034 205.067 32.3661 202.905 32.3661 200.349Z"
    fill="#9D9D9D" />
  <path
    d="M32.3661 178.525C32.3661 175.969 30.2034 173.806 27.6475 173.806C25.0916 173.806 22.9289 175.969 22.9289 178.525C22.9289 181.081 25.0916 183.244 27.6475 183.244C30.2034 183.244 32.3661 181.277 32.3661 178.525Z"
    fill="#9D9D9D" />
  <path
    d="M32.3661 156.898C32.3661 154.342 30.2034 152.179 27.6475 152.179C25.0916 152.179 22.9289 154.342 22.9289 156.898C22.9289 159.454 25.0916 161.616 27.6475 161.616C30.2034 161.616 32.3661 159.454 32.3661 156.898Z"
    fill="#9D9D9D" />
  <path
    d="M32.3661 135.074C32.3661 132.518 30.2034 130.356 27.6475 130.356C25.0916 130.356 22.9289 132.518 22.9289 135.074C22.9289 137.63 25.0916 139.793 27.6475 139.793C30.2034 139.793 32.3661 137.827 32.3661 135.074Z"
    fill="#9D9D9D" />
  <path
    d="M32.3661 113.447C32.3661 110.891 30.2034 108.729 27.6475 108.729C25.0916 108.729 22.9289 110.891 22.9289 113.447C22.9289 116.003 25.0916 118.166 27.6475 118.166C30.2034 118.166 32.3661 116.003 32.3661 113.447Z"
    fill="#9D9D9D" />
  <path
    d="M32.3661 91.6234C32.3661 89.0675 30.2034 86.9048 27.6475 86.9048C25.0916 86.9048 22.9289 89.0675 22.9289 91.6234C22.9289 94.1793 25.0916 96.3421 27.6475 96.3421C30.2034 96.3421 32.3661 94.1793 32.3661 91.6234Z"
    fill="#9D9D9D" />
  <path
    d="M32.3661 69.7996C32.3661 67.2436 30.2034 65.0809 27.6475 65.0809C25.0916 65.0809 22.9289 67.2436 22.9289 69.7996C22.9289 72.3555 25.0916 74.5182 27.6475 74.5182C30.2034 74.5182 32.3661 72.5521 32.3661 69.7996Z"
    fill="#9D9D9D" />
  <path
    d="M9.75598 200.349C9.75598 197.793 7.59328 195.63 5.03735 195.63C2.48142 195.63 0.318726 197.793 0.318726 200.349C0.318726 202.905 2.48142 205.067 5.03735 205.067C7.59328 205.067 9.75598 202.905 9.75598 200.349Z"
    fill="#9D9D9D" />
  <path
    d="M9.75598 178.525C9.75598 175.969 7.59328 173.806 5.03735 173.806C2.48142 173.806 0.318726 175.969 0.318726 178.525C0.318726 181.081 2.48142 183.244 5.03735 183.244C7.59328 183.244 9.75598 181.277 9.75598 178.525Z"
    fill="#9D9D9D" />
  <path
    d="M9.75598 156.898C9.75598 154.342 7.59328 152.179 5.03735 152.179C2.48142 152.179 0.318726 154.342 0.318726 156.898C0.318726 159.454 2.48142 161.616 5.03735 161.616C7.59328 161.616 9.75598 159.454 9.75598 156.898Z"
    fill="#9D9D9D" />
  <path
    d="M9.75598 135.074C9.75598 132.518 7.59328 130.356 5.03735 130.356C2.48142 130.356 0.318726 132.518 0.318726 135.074C0.318726 137.63 2.48142 139.793 5.03735 139.793C7.59328 139.793 9.75598 137.827 9.75598 135.074Z"
    fill="#9D9D9D" />
  <path
    d="M9.75598 113.447C9.75598 110.891 7.59328 108.729 5.03735 108.729C2.48142 108.729 0.318726 110.891 0.318726 113.447C0.318726 116.003 2.48142 118.166 5.03735 118.166C7.59328 118.166 9.75598 116.003 9.75598 113.447Z"
    fill="#9D9D9D" />
  <path
    d="M9.75598 91.6234C9.75598 89.0675 7.59328 86.9048 5.03735 86.9048C2.48142 86.9048 0.318726 89.0675 0.318726 91.6234C0.318726 94.1793 2.48142 96.3421 5.03735 96.3421C7.59328 96.3421 9.75598 94.1793 9.75598 91.6234Z"
    fill="#9D9D9D" />
  <path
    d="M9.75598 69.7996C9.75598 67.2436 7.59328 65.0809 5.03735 65.0809C2.48142 65.0809 0.318726 67.2436 0.318726 69.7996C0.318726 72.3555 2.48142 74.5182 5.03735 74.5182C7.59328 74.7148 9.75598 72.5521 9.75598 69.7996Z"
    fill="#9D9D9D" />
</svg>