<svg width="40" height="40" viewBox="0 0 40 40" fill="none" xmlns="http://www.w3.org/2000/svg">
<g clip-path="url(#clip0_4_290)">
<path d="M37.3418 0.5C37.9342 0.5 38.4421 0.711589 38.8652 1.13477C39.2884 1.55794 39.5 2.06576 39.5 2.6582V37.3418C39.5 37.9342 39.2884 38.4421 38.8652 38.8652C38.4421 39.2884 37.9342 39.5 37.3418 39.5H27.4141V24.3926H32.4668L33.2285 18.502H27.4141V14.7441C27.4141 13.7962 27.613 13.0853 28.0107 12.6113C28.4085 12.1374 29.1829 11.9004 30.334 11.9004L33.4316 11.875V6.61914C32.3652 6.4668 30.8587 6.39062 28.9121 6.39062C26.61 6.39062 24.7692 7.06771 23.3896 8.42188C22.0101 9.77604 21.3203 11.6888 21.3203 14.1602V18.502H16.2422V24.3926H21.3203V39.5H2.6582C2.06576 39.5 1.55794 39.2884 1.13477 38.8652C0.711589 38.4421 0.5 37.9342 0.5 37.3418V2.6582C0.5 2.06576 0.711589 1.55794 1.13477 1.13477C1.55794 0.711589 2.06576 0.5 2.6582 0.5H37.3418Z" fill="white"/>
</g>
<defs>
<clipPath id="clip0_4_290">
<rect width="39" height="39" fill="white" transform="translate(0.5 0.5)"/>
</clipPath>
</defs>
</svg>
