<svg width="50" height="50" viewBox="0 0 50 50" fill="none" xmlns="http://www.w3.org/2000/svg">
  <path
    d="M16.0875 4.125H33.4125C40.0125 4.125 45.375 9.4875 45.375 16.0875V33.4125C45.375 36.5852 44.1147 39.6279 41.8713 41.8713C39.6279 44.1147 36.5852 45.375 33.4125 45.375H16.0875C9.4875 45.375 4.125 40.0125 4.125 33.4125V16.0875C4.125 12.9148 5.38533 9.87214 7.62874 7.62874C9.87214 5.38533 12.9148 4.125 16.0875 4.125M15.675 8.25C13.7058 8.25 11.8172 9.03227 10.4247 10.4247C9.03227 11.8172 8.25 13.7058 8.25 15.675V33.825C8.25 37.9294 11.5706 41.25 15.675 41.25H33.825C35.7942 41.25 37.6828 40.4677 39.0753 39.0753C40.4677 37.6828 41.25 35.7942 41.25 33.825V15.675C41.25 11.5706 37.9294 8.25 33.825 8.25H15.675ZM35.5781 11.3438C36.2619 11.3438 36.9176 11.6154 37.4011 12.0989C37.8846 12.5824 38.1562 13.2381 38.1562 13.9219C38.1562 14.6056 37.8846 15.2614 37.4011 15.7449C36.9176 16.2284 36.2619 16.5 35.5781 16.5C34.8944 16.5 34.2386 16.2284 33.7551 15.7449C33.2716 15.2614 33 14.6056 33 13.9219C33 13.2381 33.2716 12.5824 33.7551 12.0989C34.2386 11.6154 34.8944 11.3438 35.5781 11.3438ZM24.75 14.4375C27.485 14.4375 30.1081 15.524 32.042 17.458C33.976 19.3919 35.0625 22.015 35.0625 24.75C35.0625 27.485 33.976 30.1081 32.042 32.042C30.1081 33.976 27.485 35.0625 24.75 35.0625C22.015 35.0625 19.3919 33.976 17.458 32.042C15.524 30.1081 14.4375 27.485 14.4375 24.75C14.4375 22.015 15.524 19.3919 17.458 17.458C19.3919 15.524 22.015 14.4375 24.75 14.4375M24.75 18.5625C23.109 18.5625 21.5352 19.2144 20.3748 20.3748C19.2144 21.5352 18.5625 23.109 18.5625 24.75C18.5625 26.391 19.2144 27.9648 20.3748 29.1252C21.5352 30.2856 23.109 30.9375 24.75 30.9375C26.391 30.9375 27.9648 30.2856 29.1252 29.1252C30.2856 27.9648 30.9375 26.391 30.9375 24.75C30.9375 23.109 30.2856 21.5352 29.1252 20.3748C27.9648 19.2144 26.391 18.5625 24.75 18.5625Z"
    fill="#F28E34" />
</svg>