<svg width="282" height="54" viewBox="0 0 282 54" fill="none" xmlns="http://www.w3.org/2000/svg">
  <path fill-rule="evenodd" clip-rule="evenodd"
    d="M108.977 8.13992C85.2084 9.71171 61.5882 11.2737 38.326 12.2807C37.6308 12.3108 37.0445 11.7272 37.0166 10.9772C36.9888 10.2271 37.5297 9.5947 38.225 9.5646C61.3705 8.56264 84.9235 7.00526 108.655 5.43605C164.52 1.74217 221.375 -2.01726 276.24 1.24835C277.665 1.33316 278.772 1.44129 279.575 1.57557C279.974 1.6423 280.332 1.72086 280.629 1.81876C280.864 1.89614 281.29 2.05313 281.605 2.41245C281.795 2.63004 282.002 2.99127 282 3.47476C281.998 3.93905 281.803 4.27905 281.652 4.47237C281.386 4.81347 281.018 5.0075 280.797 5.11354C280.281 5.36043 279.531 5.5883 278.654 5.80675C275.102 6.69141 268.051 7.75354 259.678 8.84404C247.408 10.4423 232.122 12.1228 220.405 13.411C216.091 13.8853 212.26 14.3064 209.242 14.6506C176.662 18.3667 111.649 25.8906 62.9742 32.4848C38.6186 35.7844 18.4089 38.844 8.38672 41.0726C7.24018 41.3275 6.24075 41.5687 5.39212 41.7947C7.49866 41.9544 10.5112 42.0403 14.535 42.0403C56.332 42.0403 98.2865 39.2104 140.216 36.3822C158.19 35.1699 176.16 33.9578 194.111 32.9691C197.526 32.6255 200.942 32.3049 204.359 32.0111C211.707 31.3795 218.667 31.0917 225.975 30.9509C226.452 30.9417 227.187 30.8417 228.076 30.7014C228.308 30.6648 228.549 30.6257 228.794 30.586C229.447 30.4801 230.127 30.3697 230.735 30.2905C231.157 30.2355 231.569 30.1919 231.939 30.1746C232.288 30.1582 232.683 30.1599 233.033 30.2365C233.205 30.2743 233.457 30.3487 233.701 30.5201C233.97 30.7091 234.272 31.0535 234.355 31.5796C234.431 32.0602 234.283 32.4534 234.166 32.6822C234.044 32.9184 233.885 33.1152 233.741 33.2709C232.174 34.9612 230.042 34.9723 228.295 34.7754C227.69 34.7073 227.048 34.6016 226.444 34.502C226.168 34.4565 225.899 34.4123 225.645 34.3735C224.792 34.2431 224.036 34.1608 223.365 34.1955L222.175 34.257C217.351 34.5062 212.524 34.7556 207.697 34.9878C203.231 35.2027 198.761 35.435 194.288 35.6814C174.612 37.6624 154.971 40.4075 135.358 43.163C134.896 43.2279 133.589 43.3289 131.72 43.4732C130.466 43.5701 128.958 43.6866 127.283 43.8248C123.059 44.1733 117.665 44.6671 112.233 45.3513C106.794 46.0365 101.352 46.9085 97.021 48.0074C94.8531 48.5575 93.002 49.1549 91.5832 49.7966C90.9779 50.0704 90.4855 50.3375 90.0934 50.5909C90.2332 50.6062 90.3769 50.6204 90.5228 50.6342C90.6148 50.6428 90.7095 50.6514 90.8051 50.6601C91.1554 50.692 91.5171 50.7248 91.7986 50.7657C98.2417 51.7014 108.141 51.1486 114.47 50.7952C114.713 50.7816 114.951 50.7683 115.184 50.7554C139.946 49.3804 164.703 46.8982 189.407 44.2911C192.967 43.9154 195.525 43.6352 197.305 43.434C198.272 43.2928 199.199 43.1749 199.87 43.0966C200.247 43.0526 200.55 43.0202 200.736 43.0031L200.742 43.0026C200.806 42.9967 200.926 42.9857 201.017 42.9867C201.035 42.9868 201.078 42.9875 201.133 42.9931C201.156 42.9958 201.205 43.0035 201.246 43.0112C201.258 43.0134 201.27 43.0156 201.28 43.0177C201.355 43.038 201.576 43.1299 201.714 43.2162C201.99 43.486 202.275 44.3868 202.151 44.9361C202.099 45.0248 202.03 45.1182 201.958 45.2049C202.441 45.2074 202.948 45.2088 203.48 45.2088C204.176 45.2088 204.74 45.8173 204.74 46.5679C204.74 47.3186 204.176 47.9271 203.48 47.9271C199.661 47.9271 197.054 47.8598 195.363 47.7458C194.522 47.6892 193.875 47.619 193.405 47.5319C193.174 47.4891 192.946 47.4349 192.743 47.3597C192.642 47.3219 192.517 47.268 192.39 47.189C192.278 47.1189 192.092 46.985 191.934 46.7542C191.223 46.8302 190.463 46.9109 189.652 46.9965C164.946 49.6039 140.138 52.0916 115.313 53.4701C115.054 53.4845 114.786 53.4995 114.511 53.5149C108.247 53.8654 98.1481 54.4307 91.4624 53.4597C91.2491 53.4288 90.9769 53.4039 90.6415 53.3734C90.5352 53.3637 90.4226 53.3534 90.3035 53.3422C89.8398 53.2985 89.3013 53.2417 88.8148 53.1476C88.3892 53.0653 87.768 52.9161 87.3042 52.5561C87.0443 52.3544 86.7017 51.9828 86.6094 51.3959C86.5169 50.8084 86.7251 50.3229 86.929 50.0104C87.6798 48.8593 89.0613 47.9897 90.609 47.2897C92.2095 46.5658 94.211 45.9279 96.4441 45.3613C100.915 44.2268 106.469 43.3406 111.941 42.6513C117.42 41.9611 122.852 41.4641 127.09 41.1144C128.908 40.9644 130.488 40.8427 131.757 40.7449C133.485 40.6117 134.638 40.5229 135.033 40.4674C139.696 39.8123 144.363 39.1574 149.035 38.5128C146.187 38.7039 143.34 38.896 140.492 39.088C98.5055 41.9194 56.4026 44.7586 14.535 44.7586C10.4293 44.7586 7.31641 44.67 5.11594 44.4987C4.01801 44.4132 3.12077 44.3052 2.42923 44.1705C2.08359 44.1032 1.76772 44.0252 1.49297 43.9315C1.23483 43.8435 0.933907 43.7159 0.672885 43.5122C0.419189 43.3143 -0.00196217 42.8728 6.87987e-06 42.156C0.00182584 41.4938 0.37152 41.0631 0.567 40.8734C0.966754 40.4853 1.57397 40.2038 2.14974 39.9799C3.39315 39.4963 5.3532 38.9716 7.87806 38.4102C18.0149 36.1562 38.3268 33.0842 62.6602 29.7877C111.363 23.1897 176.398 15.6633 208.977 11.9474C212.011 11.6013 215.854 11.1788 220.177 10.7035C231.891 9.41577 247.131 7.74024 259.376 6.14531C265.531 5.34364 270.885 4.56766 274.644 3.87749C220.384 0.772476 164.28 4.48268 108.977 8.13992ZM279.989 4.45572C279.989 4.45572 279.983 4.45338 279.973 4.44783C279.984 4.45283 279.989 4.45572 279.989 4.45572ZM193.66 46.9363C193.66 46.9363 193.665 46.9332 193.677 46.9276C193.666 46.9337 193.66 46.9363 193.66 46.9363Z"
    fill="#F28E34" />
</svg>