<svg width="40" height="44" viewBox="0 0 40 44" fill="none" xmlns="http://www.w3.org/2000/svg">
  <g clip-path="url(#clip0_68_2)">
    <path
      d="M35.7143 2H4.28571C1.91964 2 0 3.91964 0 6.28571V37.7143C0 40.0804 1.91964 42 4.28571 42H35.7143C38.0804 42 40 40.0804 40 37.7143V6.28571C40 3.91964 38.0804 2 35.7143 2ZM31.3482 16.1786C31.3661 16.4286 31.3661 16.6875 31.3661 16.9375C31.3661 24.6786 25.4732 33.5982 14.7054 33.5982C11.3839 33.5982 8.30357 32.6339 5.71429 30.9732C6.1875 31.0268 6.64286 31.0446 7.125 31.0446C9.86607 31.0446 12.3839 30.1161 14.3929 28.5446C11.8214 28.4911 9.66071 26.8036 8.91964 24.4821C9.82143 24.6161 10.6339 24.6161 11.5625 24.375C8.88393 23.8304 6.875 21.4732 6.875 18.625V18.5536C7.65179 18.9911 8.5625 19.2589 9.51786 19.2946C8.71467 18.7604 8.05623 18.0356 7.60131 17.185C7.14639 16.3343 6.90914 15.3843 6.91071 14.4196C6.91071 13.3304 7.19643 12.3304 7.70536 11.4643C10.5893 15.0179 14.9196 17.3393 19.7768 17.5893C18.9464 13.6161 21.9196 10.3929 25.4911 10.3929C27.1786 10.3929 28.6964 11.0982 29.7679 12.2411C31.0893 11.9911 32.3571 11.5 33.4821 10.8304C33.0446 12.1875 32.125 13.3304 30.9107 14.0536C32.0893 13.9286 33.2321 13.5982 34.2857 13.1429C33.4911 14.3125 32.4911 15.3482 31.3482 16.1786Z"
      fill="white" />
  </g>
  <defs>
    <clipPath id="clip0_68_2">
      <rect width="39" height="44" fill="white" transform="translate(0.5)" />
    </clipPath>
  </defs>
</svg>