<svg width="50" height="50" viewBox="0 0 50 50" fill="none" xmlns="http://www.w3.org/2000/svg">
  <path
    d="M24.75 41.25C29.1261 41.25 33.3229 39.5116 36.4173 36.4173C39.5116 33.3229 41.25 29.1261 41.25 24.75C41.25 20.3739 39.5116 16.1771 36.4173 13.0827C33.3229 9.98839 29.1261 8.25 24.75 8.25C20.3739 8.25 16.1771 9.98839 13.0827 13.0827C9.98839 16.1771 8.25 20.3739 8.25 24.75C8.25 29.1261 9.98839 33.3229 13.0827 36.4173C16.1771 39.5116 20.3739 41.25 24.75 41.25V41.25ZM24.75 45.375C13.3588 45.375 4.125 36.1412 4.125 24.75C4.125 13.3588 13.3588 4.125 24.75 4.125C36.1412 4.125 45.375 13.3588 45.375 24.75C45.375 36.1412 36.1412 45.375 24.75 45.375Z"
    fill="#F28E34" />
  <path
    d="M35.0625 18.4532C34.3035 18.7832 33.4888 19.0101 32.6329 19.1091C33.5074 18.5935 34.1756 17.7767 34.4932 16.8053C33.6599 17.2909 32.7507 17.6326 31.8038 17.8159C31.4054 17.3984 30.9262 17.0664 30.3954 16.8402C29.8646 16.6139 29.2932 16.4982 28.7162 16.5C26.3794 16.5 24.486 18.3666 24.486 20.6663C24.486 20.9921 24.5231 21.3098 24.5953 21.615C22.9192 21.5354 21.278 21.1073 19.7766 20.358C18.2751 19.6087 16.9464 18.5547 15.8751 17.2631C15.4988 17.8965 15.3007 18.6199 15.3017 19.3566C15.3017 20.8003 16.0504 22.0791 17.1847 22.8236C16.5133 22.8026 15.8562 22.6238 15.2666 22.3018V22.3534C15.273 23.3217 15.6148 24.2578 16.2338 25.0024C16.8528 25.747 17.7107 26.254 18.6615 26.4371C18.0373 26.6022 17.3842 26.6262 16.7496 26.5073C17.0262 27.3403 17.5553 28.0664 18.2635 28.585C18.9716 29.1035 19.8237 29.3887 20.7013 29.401C19.1956 30.5612 17.3469 31.1881 15.4461 31.183C15.1057 31.183 14.7696 31.1623 14.4375 31.1252C16.3772 32.353 18.6264 33.0033 20.922 33C28.7059 33 32.9608 26.6516 32.9608 21.1448L32.9464 20.6044C33.7761 20.0213 34.4931 19.2924 35.0625 18.4532V18.4532Z"
    fill="#F28E34" />
</svg>