<svg width="50" height="50" viewBox="0 0 50 50" fill="none" xmlns="http://www.w3.org/2000/svg">
  <path
    d="M26.8125 41.1221C30.9732 40.5927 34.7761 38.4989 37.4484 35.2662C40.1207 32.0336 41.4619 27.9047 41.1992 23.7187C40.9366 19.5327 39.0899 15.6038 36.0345 12.7305C32.979 9.85725 28.9442 8.2552 24.75 8.25C20.5507 8.24687 16.5081 9.84501 13.4461 12.7188C10.3841 15.5925 8.53306 19.5257 8.2701 23.7168C8.00713 27.9079 9.35207 32.0415 12.0309 35.2755C14.7096 38.5094 18.5207 40.6003 22.6875 41.1221V28.875H18.5625V24.75H22.6875V21.3386C22.6875 18.5811 22.9762 17.5807 23.5125 16.5722C24.0407 15.5743 24.8572 14.7586 25.8555 14.2313C26.6434 13.8084 27.6231 13.5548 29.3349 13.4454C30.0135 13.4021 30.8921 13.4557 31.9708 13.6104V17.5292H30.9375C29.0462 17.5292 28.2645 17.6179 27.7984 17.8674C27.5202 18.0105 27.2938 18.2369 27.1507 18.5151C26.9032 18.9812 26.8125 19.4432 26.8125 21.3366V24.75H31.9688L30.9375 28.875H26.8125V41.1221ZM24.75 45.375C13.3588 45.375 4.125 36.1412 4.125 24.75C4.125 13.3588 13.3588 4.125 24.75 4.125C36.1412 4.125 45.375 13.3588 45.375 24.75C45.375 36.1412 36.1412 45.375 24.75 45.375Z"
    fill="#F28E34" />
</svg>