<svg width="40" height="40" viewBox="0 0 40 40" fill="none" xmlns="http://www.w3.org/2000/svg">
<path d="M20 15.2375C19.0817 15.2379 18.1841 15.5175 17.4207 16.041C16.6573 16.5645 16.0624 17.3084 15.7113 18.1787C15.3601 19.049 15.2684 20.0065 15.4477 20.9302C15.6271 21.8539 16.0695 22.7024 16.719 23.3682C17.3684 24.0341 18.1958 24.4875 19.0965 24.6711C19.9972 24.8547 20.9307 24.7603 21.7791 24.3998C22.6275 24.0393 23.3526 23.4289 23.8627 22.6457C24.3729 21.8626 24.6452 20.9419 24.6452 20C24.6443 18.7369 24.1545 17.5258 23.2835 16.6328C22.4125 15.7398 21.2315 15.238 20 15.2375ZM30.8565 11.5768C30.6201 10.9624 30.2631 10.4043 29.8077 9.93724C29.3523 9.47017 28.8082 9.10406 28.2092 8.86161C26.381 8.12143 22.0283 8.2875 20 8.2875C17.9717 8.2875 13.6233 8.11518 11.79 8.86161C11.1909 9.10406 10.6468 9.47017 10.1914 9.93724C9.73603 10.4043 9.37907 10.9624 9.14268 11.5768C8.42188 13.4518 8.58292 17.9205 8.58292 19.9991C8.58292 22.0777 8.42188 26.5411 9.14616 28.4223C9.38255 29.0367 9.73951 29.5948 10.1949 30.0619C10.6503 30.5289 11.1944 30.8951 11.7935 31.1375C13.6216 31.8777 17.9743 31.7116 20.0035 31.7116C22.0327 31.7116 26.3793 31.8839 28.2126 31.1375C28.8117 30.8951 29.3558 30.5289 29.8112 30.0619C30.2666 29.5948 30.6235 29.0367 30.8599 28.4223C31.5868 26.5473 31.4197 22.0786 31.4197 20C31.4197 17.9214 31.5868 13.4589 30.8599 11.5777L30.8565 11.5768ZM20 27.3214C18.5882 27.3214 17.208 26.892 16.0341 26.0875C14.8602 25.2831 13.9453 24.1396 13.405 22.8018C12.8647 21.464 12.7233 19.9919 12.9988 18.5717C13.2742 17.1514 13.9541 15.8469 14.9524 14.823C15.9507 13.799 17.2227 13.1018 18.6074 12.8193C19.9921 12.5368 21.4274 12.6817 22.7317 13.2359C24.0361 13.79 25.151 14.7284 25.9354 15.9324C26.7197 17.1364 27.1384 18.552 27.1384 20C27.1395 20.9618 26.9557 21.9144 26.5973 22.8032C26.239 23.692 25.7133 24.4996 25.0502 25.1797C24.3871 25.8597 23.5997 26.399 22.7331 26.7665C21.8665 27.134 20.9377 27.3226 20 27.3214ZM27.4326 14.0804C27.1031 14.0805 26.7808 13.9805 26.5067 13.7928C26.2326 13.6051 26.0189 13.3383 25.8926 13.026C25.7664 12.7138 25.7333 12.3701 25.7975 12.0386C25.8617 11.707 26.0203 11.4024 26.2533 11.1633C26.4863 10.9243 26.7831 10.7614 27.1064 10.6954C27.4296 10.6294 27.7647 10.6632 28.0692 10.7925C28.3737 10.9218 28.634 11.1409 28.8171 11.4219C29.0002 11.703 29.098 12.0334 29.098 12.3714C29.0989 12.5959 29.0566 12.8184 28.9735 13.026C28.8904 13.2337 28.7681 13.4225 28.6137 13.5816C28.4593 13.7407 28.2758 13.867 28.0738 13.9532C27.8717 14.0394 27.655 14.0838 27.4361 14.0839L27.4326 14.0804ZM35.3214 0H4.67857C3.57035 0 2.50751 0.451529 1.72388 1.25526C0.940241 2.05898 0.5 3.14907 0.5 4.28571L0.5 35.7143C0.5 36.8509 0.940241 37.941 1.72388 38.7447C2.50751 39.5485 3.57035 40 4.67857 40H35.3214C36.4297 40 37.4925 39.5485 38.2761 38.7447C39.0598 37.941 39.5 36.8509 39.5 35.7143V4.28571C39.5 3.14907 39.0598 2.05898 38.2761 1.25526C37.4925 0.451529 36.4297 0 35.3214 0ZM33.8311 25.8929C33.7188 28.1813 33.2095 30.2089 31.5807 31.875C29.952 33.5411 27.9767 34.0741 25.7481 34.183C23.4491 34.3161 16.5562 34.3161 14.2571 34.183C12.0259 34.0679 10.0559 33.5446 8.42449 31.875C6.7931 30.2054 6.28036 28.1768 6.17415 25.8929C6.04444 23.5339 6.04444 16.4634 6.17415 14.1071C6.28645 11.8188 6.78962 9.79107 8.42449 8.125C10.0594 6.45893 12.0346 5.93214 14.2571 5.82321C16.5562 5.69018 23.4491 5.69018 25.7481 5.82321C27.9793 5.93839 29.9554 6.46161 31.5807 8.13125C33.206 9.80089 33.7249 11.8295 33.8311 14.1179C33.9608 16.4679 33.9608 23.5321 33.8311 25.8929Z" fill="white"/>
</svg>
