<svg width="65" height="65" viewBox="0 0 65 65" fill="none" xmlns="http://www.w3.org/2000/svg">
  <path fill-rule="evenodd" clip-rule="evenodd"
    d="M42.0613 20.2303C42.8546 21.0236 42.8546 22.3097 42.0613 23.1029L32.5821 32.5821C31.7889 33.3754 30.5028 33.3754 29.7095 32.5821L24.2929 27.1654C23.4996 26.3722 23.4996 25.0861 24.2929 24.2928C25.0861 23.4996 26.3722 23.4996 27.1655 24.2928L31.1458 28.2732L39.1887 20.2303C39.9819 19.4371 41.2681 19.4371 42.0613 20.2303Z"
    fill="#F28E34" />
  <path fill-rule="evenodd" clip-rule="evenodd"
    d="M9.54515 23.9873C10.5048 12.3452 20.2335 3.38538 31.9151 3.38538H33.0849C44.7665 3.38538 54.4952 12.3452 55.4548 23.9873C55.9703 30.2412 54.0386 36.4511 50.0664 41.309L37.0851 57.1847C34.7153 60.0829 30.2847 60.0829 27.9149 57.1847L14.9336 41.309C10.9614 36.4511 9.02965 30.2412 9.54515 23.9873ZM31.9151 7.44788C22.3478 7.44788 14.3799 14.786 13.5939 24.321C13.1649 29.526 14.7727 34.6943 18.0786 38.7374L31.0598 54.6131C31.8042 55.5234 33.1958 55.5234 33.9402 54.6131L46.9214 38.7374C50.2273 34.6943 51.8351 29.526 51.4061 24.321C50.6201 14.786 42.6522 7.44788 33.0849 7.44788H31.9151Z"
    fill="#F28E34" />
</svg>