<svg width="65" height="65" viewBox="0 0 65 65" fill="none" xmlns="http://www.w3.org/2000/svg">
  <path
    d="M20.2675 14.2444C17.168 14.5908 14.687 17.0371 14.3284 20.1032C13.3651 28.3397 13.3651 36.6603 14.3284 44.8968C14.687 47.9629 17.168 50.4092 20.2675 50.7556C28.3297 51.6567 36.6704 51.6567 44.7326 50.7556C47.8321 50.4092 50.3131 47.9629 50.6717 44.8968C51.3639 38.9787 51.5587 33.0171 51.2562 27.0745C51.2484 26.921 51.3057 26.7713 51.4144 26.6627L54.2277 23.8493C54.5533 23.5237 55.1097 23.7273 55.1443 24.1865C55.6753 31.2415 55.5294 38.3347 54.7067 45.3687C54.1248 50.3438 50.1303 54.2401 45.1839 54.793C36.8217 55.7276 28.1784 55.7276 19.8162 54.793C14.8698 54.2401 10.8753 50.3438 10.2934 45.3687C9.2934 36.8187 9.2934 28.1813 10.2934 19.6313C10.8753 14.6562 14.8698 10.7599 19.8162 10.207C28.1784 9.27246 36.8217 9.27246 45.1839 10.207C46.926 10.4018 48.5501 11.0112 49.9485 11.9365C50.2237 12.1185 50.251 12.5054 50.0177 12.7387L47.8432 14.9132C47.6653 15.0911 47.3895 15.121 47.1678 15.0022C46.4273 14.6054 45.6044 14.3418 44.7326 14.2444C36.6704 13.3433 28.3297 13.3433 20.2675 14.2444Z"
    fill="#F28E34" />
  <path
    d="M56.9572 16.3322C57.7504 15.5389 57.7504 14.2528 56.9572 13.4595C56.1639 12.6663 54.8778 12.6663 54.0845 13.4595L31.1458 36.3982L24.4572 29.7095C23.6639 28.9163 22.3778 28.9163 21.5845 29.7095C20.7913 30.5028 20.7913 31.7889 21.5845 32.5822L29.7095 40.7072C30.5028 41.5004 31.7889 41.5004 32.5822 40.7072L56.9572 16.3322Z"
    fill="#F28E34" />
</svg>