<svg width="65" height="65" viewBox="0 0 65 65" fill="none" xmlns="http://www.w3.org/2000/svg">
  <path fill-rule="evenodd" clip-rule="evenodd"
    d="M58.9062 32.5C58.9062 33.2377 58.5063 33.9174 57.8615 34.2756L51.6801 37.7097C39.4617 44.4977 26.5816 50.0193 13.2405 54.1884L11.4392 54.7513C10.8224 54.944 10.1508 54.8318 9.63014 54.4491C9.10953 54.0663 8.80208 53.4587 8.80208 52.8125L8.80208 37.2396C8.80208 36.1806 9.6157 35.2993 10.6713 35.2148L11.287 35.1656C17.1139 34.6994 22.8959 33.8078 28.587 32.4992C22.816 31.1724 16.9515 30.2744 11.0416 29.8141L10.6756 29.7855C9.61814 29.7032 8.80208 28.8211 8.80208 27.7604L8.80208 12.1875C8.80208 11.5413 9.10953 10.9337 9.63015 10.551C10.1508 10.1682 10.8224 10.056 11.4392 10.2487L13.2404 10.8116C26.5816 14.9807 39.4617 20.5023 51.6802 27.2903L57.8615 30.7244C58.5063 31.0826 58.9062 31.7623 58.9062 32.5ZM52.6924 32.5L49.7072 30.8416C37.9861 24.3299 25.6438 19.0071 12.8646 14.9524L12.8646 25.8905C20.8002 26.6062 28.6495 28.0859 36.3033 30.3095L37.1292 30.5494C37.9976 30.8017 38.5946 31.5977 38.5937 32.502C38.5929 33.4063 37.9943 34.2011 37.1254 34.4517L36.0676 34.7568C28.4885 36.9428 20.7188 38.3998 12.8646 39.1084L12.8646 50.0476C25.6437 45.9929 37.9861 40.6702 49.7072 34.1585L52.6924 32.5Z"
    fill="#F28E34" />
</svg>